0
SECTION
2
HEADER
9
$INSUNITS
70
4
9
$ACADVER
1
AC1014
9
$HANDSEED
5
FFFF
0
ENDSEC
0
SECTION
2
TABLES
0
TABLE
2
VPORT
5
8
100
AcDbSymbolTable
0
ENDTAB
0
TABLE
2
LTYPE
5
5
100
AcDbSymbolTable
0
LTYPE
5
14
100
AcDbSymbolTableRecord
100
AcDbLinetypeTableRecord
2
BYBLOCK
70
0
0
LTYPE
5
15
100
AcDbSymbolTableRecord
100
AcDbLinetypeTableRecord
2
BYLAYER
70
0
0
ENDTAB
0
TABLE
2
LAYER
5
2
100
AcDbSymbolTable
70
2
0
LAYER
5
50
100
AcDbSymbolTableRecord
100
AcDbLayerTableRecord
2
0
70
0
6
CONTINUOUS
0
ENDTAB
0
TABLE
2
STYLE
5
3
100
AcDbSymbolTable
70
1
0
STYLE
5
11
100
AcDbSymbolTableRecord
100
AcDbTextStyleTableRecord
2
STANDARD
70
0
0
ENDTAB
0
TABLE
2
VIEW
5
6
100
AcDbSymbolTable
70
0
0
ENDTAB
0
TABLE
2
UCS
5
7
100
AcDbSymbolTable
70
0
0
ENDTAB
0
TABLE
2
APPID
5
9
100
AcDbSymbolTable
70
2
0
APPID
5
12
100
AcDbSymbolTableRecord
100
AcDbRegAppTableRecord
2
ACAD
70
0
0
ENDTAB
0
TABLE
2
DIMSTYLE
5
A
100
AcDbSymbolTable
70
1
0
ENDTAB
0
TABLE
2
BLOCK_RECORD
5
1
100
AcDbSymbolTable
70
1
0
BLOCK_RECORD
5
1F
100
AcDbSymbolTableRecord
100
AcDbBlockTableRecord
2
*MODEL_SPACE
0
BLOCK_RECORD
5
1B
100
AcDbSymbolTableRecord
100
AcDbBlockTableRecord
2
*PAPER_SPACE
0
ENDTAB
0
ENDSEC
0
SECTION
2
BLOCKS
0
BLOCK
5
20
100
AcDbEntity
100
AcDbBlockBegin
2
*MODEL_SPACE
0
ENDBLK
5
21
100
AcDbEntity
100
AcDbBlockEnd
0
BLOCK
5
1C
100
AcDbEntity
100
AcDbBlockBegin
2
*PAPER_SPACE
0
ENDBLK
5
1D
100
AcDbEntity
100
AcDbBlockEnd
0
ENDSEC
0
SECTION
2
ENTITIES
0
SPLINE
5
100
100
AcDbEntity
8
0
100
AcDbSpline
70
1064
71
3
72
8
73
4
74
0
42
0.000000001
43
0.0000000001
44
0.0000000001
40
0
40
0
40
0
40
0
40
1
40
1
40
1
40
1
10
87.875580599182143
20
-81.798968022255451
30
0
10
92.751801047994007
20
-86.577205110776774
30
0
10
91.942330108357766
20
-94.583713333992506
30
0
10
87.183326341980006
20
-99.120992908068857
30
0
0
SPLINE
5
101
100
AcDbEntity
8
0
100
AcDbSpline
70
1064
71
3
72
8
73
4
74
0
42
0.000000001
43
0.0000000001
44
0.0000000001
40
0
40
0
40
0
40
0
40
1
40
1
40
1
40
1
10
87.183326341980006
20
-99.120992908068857
30
0
10
81.139606096618678
20
-104.88313311853842
30
0
10
71.372925919565859
20
-103.80062490422362
30
0
10
65.912822344177272
20
-97.809864927518717
30
0
0
SPLINE
5
102
100
AcDbEntity
8
0
100
AcDbSpline
70
1064
71
3
72
8
73
4
74
0
42
0.000000001
43
0.0000000001
44
0.0000000001
40
0
40
0
40
0
40
0
40
1
40
1
40
1
40
1
10
65.912822344177272
20
-97.809864927518717
30
0
10
59.258076733622254
20
-90.508360506284589
30
0
10
60.616710696889264
20
-78.969142366636149
30
0
10
67.842820010854112
20
-72.590877780505366
30
0
0
SPLINE
5
103
100
AcDbEntity
8
0
100
AcDbSpline
70
1064
71
3
72
8
73
4
74
0
42
0.000000001
43
0.0000000001
44
0.0000000001
40
0
40
0
40
0
40
0
40
1
40
1
40
1
40
1
10
67.842820010854112
20
-72.590877780505366
30
0
10
76.39789778617353
20
-65.039574330238864
30
0
10
89.716731137308784
20
-66.676057935941571
30
0
10
97.010286269856806
20
-75.139745133308921
30
0
0
SPLINE
5
104
100
AcDbEntity
8
0
100
AcDbSpline
70
1064
71
3
72
8
73
4
74
0
42
0.000000001
43
0.0000000001
44
0.0000000001
40
0
40
0
40
0
40
0
40
1
40
1
40
1
40
1
10
97.010286269856806
20
-75.139745133308921
30
0
10
105.46066678590904
20
-84.945856850533033
30
0
10
103.54528789746097
20
-100.04873828211262
30
0
10
93.842545193705277
20
-108.25569857874349
30
0
0
SPLINE
5
105
100
AcDbEntity
8
0
100
AcDbSpline
70
1064
71
3
72
8
73
4
74
0
42
0.000000001
43
0.0000000001
44
0.0000000001
40
0
40
0
40
0
40
0
40
1
40
1
40
1
40
1
10
93.842545193705277
20
-108.25569857874349
30
0
10
82.787058832519563
20
-117.6068558307373
30
0
10
65.897157925638851
20
-115.41189936914877
30
0
10
56.778116673502623
20
-104.46909185368652
30
0
0
SPLINE
5
106
100
AcDbEntity
8
0
100
AcDbSpline
70
1064
71
3
72
8
73
4
74
0
42
0.000000001
43
0.0000000001
44
0.0000000001
40
0
40
0
40
0
40
0
40
1
40
1
40
1
40
1
10
56.778116673502623
20
-104.46909185368652
30
0
10
46.52497555640668
20
-92.165353196053061
30
0
10
48.99997387158205
20
-73.486349607694493
30
0
10
61.183601159128848
20
-63.456180184273279
30
0
0
SPLINE
5
107
100
AcDbEntity
8
0
100
AcDbSpline
70
1064
71
3
72
8
73
4
74
0
42
0.000000001
43
0.0000000001
44
0.0000000001
40
0
40
0
40
0
40
0
40
1
40
1
40
1
40
1
10
61.183601159128848
20
-63.456180184273279
30
0
10
74.734776594512965
20
-52.300179125059003
30
0
10
95.204404896769233
20
-55.055550345965578
30
0
10
106.14499194053144
20
-68.480534356026197
30
0
0
SPLINE
5
108
100
AcDbEntity
8
0
100
AcDbSpline
70
1064
71
3
72
8
73
4
74
0
42
0.000000001
43
0.0000000001
44
0.0000000001
40
0
40
0
40
0
40
0
40
1
40
1
40
1
40
1
10
106.14499194053144
20
-68.480534356026197
30
0
10
118.20451908337405
20
-83.278549060412601
30
0
10
115.16852868623864
20
-105.53995672185059
30
0
10
100.50176404543053
20
-117.39040424941814
30
0
0
SPLINE
5
109
100
AcDbEntity
8
0
100
AcDbSpline
70
1064
71
3
72
8
73
4
74
0
42
0.000000001
43
0.0000000001
44
0.0000000001
40
0
40
0
40
0
40
0
40
1
40
1
40
1
40
1
10
100.50176404543053
20
-117.39040424941814
30
0
10
84.457362240824409
20
-130.35396212854818
30
0
10
60.403303180409779
20
-127.03716684300538
30
0
10
47.643415040049256
20
-111.12830263096924
30
0
0
SPLINE
5
110
100
AcDbEntity
8
0
100
AcDbSpline
70
1064
71
3
72
8
73
4
74
0
42
0.000000001
43
0.0000000001
44
0.0000000001
40
0
40
0
40
0
40
0
40
1
40
1
40
1
40
1
10
47.643415040049256
20
-111.12830263096924
30
0
10
33.775420683893856
20
-93.837877076057936
30
0
10
37.373164179199236
20
-67.990456065722654
30
0
10
54.524382307403584
20
-54.321474513598638
30
0
0
SPLINE
5
111
100
AcDbEntity
8
0
100
AcDbSpline
70
1064
71
3
72
8
73
4
74
0
42
0.000000001
43
0.0000000001
44
0.0000000001
40
0
40
0
40
0
40
0
40
1
40
1
40
1
40
1
10
54.524382307403584
20
-54.321474513598638
30
0
10
73.060565156016054
20
-39.548717674800109
30
0
10
100.7018971783651
20
-43.427521412758381
30
0
10
115.27969761120609
20
-61.821311467079674
30
0
0
SPLINE
5
112
100
AcDbEntity
8
0
100
AcDbSpline
70
1064
71
3
72
8
73
4
74
0
42
0.000000001
43
0.0000000001
44
0.0000000001
40
0
40
0
40
0
40
0
40
1
40
1
40
1
40
1
10
115.27969761120609
20
-61.821311467079674
30
0
10
130.95747127758793
20
-81.603017450559477
30
0
10
126.79751847810876
20
-111.03872476536866
30
0
10
107.16099097159834
20
-126.52510992009277
30
0
0
SPLINE
5
113
100
AcDbEntity
8
0
100
AcDbSpline
70
1064
71
3
72
8
73
4
74
0
42
0.000000001
43
0.0000000001
44
0.0000000001
40
0
40
0
40
0
40
0
40
1
40
1
40
1
40
1
10
107.16099097159834
20
-126.52510992009277
30
0
10
86.133947565429722
20
-143.10811741470135
30
0
10
54.903493533803321
20
-138.66693985580241
30
0
10
38.508713406595888
20
-117.7875214826945
30
0
0
SPLINE
5
114
100
AcDbEntity
8
0
100
AcDbSpline
70
1064
71
3
72
8
73
4
74
0
42
0.000000001
43
0.0000000001
44
0.0000000001
40
0
40
0
40
0
40
0
40
1
40
1
40
1
40
1
10
38.508713406595888
20
-117.7875214826945
30
0
10
21.020277287834187
20
-95.515302142688
30
0
10
25.74274722960919
20
-62.489786490985111
30
0
10
47.865163455678328
20
-45.186766824313352
30
0
0
SPLINE
5
115
100
AcDbEntity
8
0
100
AcDbSpline
70
1064
71
3
72
8
73
4
74
0
42
0.000000001
43
0.0000000001
44
0.0000000001
40
0
40
0
40
0
40
0
40
1
40
1
40
1
40
1
10
47.865163455678328
20
-45.186766824313352
30
0
10
71.382441650105818
20
-26.792760778653971
30
0
10
106.20328134126794
20
-31.796570540655008
30
0
10
124.41439520743819
20
-55.16209261535441
30
0
0
SPLINE
5
116
100
AcDbEntity
8
0
100
AcDbSpline
70
1064
71
3
72
8
73
4
74
0
42
0.000000001
43
0.0000000001
44
0.0000000001
40
0
40
0
40
0
40
0
40
1
40
1
40
1
40
1
10
124.41439520743819
20
-55.16209261535441
30
0
10
143.52517961092127
20
-79.681925894010419
30
0
10
138.56074587729901
20
-115.90035469650064
30
0
10
114.4474325202637
20
-135.16563548365073
30
0
0
SPLINE
5
117
100
AcDbEntity
8
0
100
AcDbSpline
70
1064
71
3
72
8
73
4
74
0
42
0.000000001
43
0.0000000001
44
0.0000000001
40
0
40
0
40
0
40
0
40
1
40
1
40
1
40
1
10
70.766632177703883
20
-94.407472476550282
30
0
10
65.890411728892033
20
-89.6292313508077
30
0
10
66.699882668528261
20
-81.622727164813242
30
0
10
71.458886434906034
20
-77.085447590736905
30
0
0
SPLINE
5
118
100
AcDbEntity
8
0
100
AcDbSpline
70
1064
71
3
72
8
73
4
74
0
42
0.000000001
43
0.0000000001
44
0.0000000001
40
0
40
0
40
0
40
0
40
1
40
1
40
1
40
1
10
71.458886434906034
20
-77.085447590736905
30
0
10
77.502610717488636
20
-71.323307380267337
30
0
10
87.269286857320182
20
-72.405815594582108
30
0
10
92.729394469930043
20
-78.39657557128703
30
0
0
SPLINE
5
119
100
AcDbEntity
8
0
100
AcDbSpline
70
1064
71
3
72
8
73
4
74
0
42
0.000000001
43
0.0000000001
44
0.0000000001
40
0
40
0
40
0
40
0
40
1
40
1
40
1
40
1
10
92.729394469930043
20
-78.39657557128703
30
0
10
99.384140080485054
20
-85.698079992521173
30
0
10
98.025502079996784
20
-97.237298132169599
30
0
10
90.799392766031929
20
-103.61555868107911
30
0
0
SPLINE
5
120
100
AcDbEntity
8
0
100
AcDbSpline
70
1064
71
3
72
8
73
4
74
0
42
0.000000001
43
0.0000000001
44
0.0000000001
40
0
40
0
40
0
40
0
40
1
40
1
40
1
40
1
10
90.799392766031929
20
-103.61555868107911
30
0
10
82.244310953491237
20
-111.16685809412434
30
0
10
68.925477602355983
20
-109.53037852564292
30
0
10
61.631922469807961
20
-101.06669132827555
30
0
0
SPLINE
5
121
100
AcDbEntity
8
0
100
AcDbSpline
70
1064
71
3
72
8
73
4
74
0
42
0.000000001
43
0.0000000001
44
0.0000000001
40
0
40
0
40
0
40
0
40
1
40
1
40
1
40
1
10
61.631922469807961
20
-101.06669132827555
30
0
10
53.181541953755712
20
-91.26057961105144
30
0
10
55.096920842203794
20
-76.157698179471836
30
0
10
64.79966354595949
20
-67.95074595728353
30
0
0
SPLINE
5
122
100
AcDbEntity
8
0
100
AcDbSpline
70
1064
71
3
72
8
73
4
74
0
42
0.000000001
43
0.0000000001
44
0.0000000001
40
0
40
0
40
0
40
0
40
1
40
1
40
1
40
1
10
64.79966354595949
20
-67.95074595728353
30
0
10
75.855153944366478
20
-58.599580630847171
30
0
10
92.745058888468449
20
-60.794541129656984
30
0
10
101.86409206616213
20
-71.737352682340486
30
0
0
SPLINE
5
123
100
AcDbEntity
8
0
100
AcDbSpline
70
1064
71
3
72
8
73
4
74
0
42
0.000000001
43
0.0000000001
44
0.0000000001
40
0
40
0
40
0
40
0
40
1
40
1
40
1
40
1
10
101.86409206616213
20
-71.737352682340486
30
0
10
112.11722914603682
20
-84.041095377195219
30
0
10
109.64223486808271
20
-102.72010300277506
30
0
10
97.458611617757199
20
-112.75025627731119
30
0
0
SPLINE
5
124
100
AcDbEntity
8
0
100
AcDbSpline
70
1064
71
3
72
8
73
4
74
0
42
0.000000001
43
0.0000000001
44
0.0000000001
40
0
40
0
40
0
40
0
40
1
40
1
40
1
40
1
10
97.458611617757199
20
-112.75025627731119
30
0
10
83.907428107930542
20
-123.90626137374674
30
0
10
63.43779980567426
20
-121.15089015284016
30
0
10
52.4972208363546
20
-107.72590210555826
30
0
0
SPLINE
5
125
100
AcDbEntity
8
0
100
AcDbSpline
70
1064
71
3
72
8
73
4
74
0
42
0.000000001
43
0.0000000001
44
0.0000000001
40
0
40
0
40
0
40
0
40
1
40
1
40
1
40
1
10
52.4972208363546
20
-107.72590210555826
30
0
10
40.437697730733255
20
-92.927887401171873
30
0
10
43.473688127868677
20
-70.666479739733887
30
0
10
58.140448731455507
20
-58.816032212166348
30
0
0
SPLINE
5
126
100
AcDbEntity
8
0
100
AcDbSpline
70
1064
71
3
72
8
73
4
74
0
42
0.000000001
43
0.0000000001
44
0.0000000001
40
0
40
0
40
0
40
0
40
1
40
1
40
1
40
1
10
58.140448731455507
20
-58.816032212166348
30
0
10
74.184850536061631
20
-45.852472314425661
30
0
10
98.238909596476262
20
-49.169265581357834
30
0
10
110.99879773683679
20
-65.078125756172682
30
0
0
SPLINE
5
127
100
AcDbEntity
8
0
100
AcDbSpline
70
1064
71
3
72
8
73
4
74
0
42
0.000000001
43
0.0000000001
44
0.0000000001
40
0
40
0
40
0
40
0
40
1
40
1
40
1
40
1
10
110.99879773683679
20
-65.078125756172682
30
0
10
124.86679814882409
20
-82.368559385526524
30
0
10
121.26905263490806
20
-108.21597232141927
30
0
10
104.11783046948246
20
-121.8849538735433
30
0
0
SPLINE
5
128
100
AcDbEntity
8
0
100
AcDbSpline
70
1064
71
3
72
8
73
4
74
0
42
0.000000001
43
0.0000000001
44
0.0000000001
40
0
40
0
40
0
40
0
40
1
40
1
40
1
40
1
10
104.11783046948246
20
-121.8849538735433
30
0
10
85.581647620869973
20
-136.65771979608968
30
0
10
57.940319635742206
20
-132.77891908604738
30
0
10
43.362519202901225
20
-114.38512903172608
30
0
0
SPLINE
5
129
100
AcDbEntity
8
0
100
AcDbSpline
70
1064
71
3
72
8
73
4
74
0
42
0.000000001
43
0.0000000001
44
0.0000000001
40
0
40
0
40
0
40
0
40
1
40
1
40
1
40
1
10
43.362519202901225
20
-114.38512903172608
30
0
10
27.684742508603431
20
-94.603423048246242
30
0
10
31.844698335998554
20
-65.167719770658366
30
0
10
51.48122987973025
20
-49.681334615934247
30
0
0
SPLINE
5
130
100
AcDbEntity
8
0
100
AcDbSpline
70
1064
71
3
72
8
73
4
74
0
42
0.000000001
43
0.0000000001
44
0.0000000001
40
0
40
0
40
0
40
0
40
1
40
1
40
1
40
1
10
51.48122987973025
20
-49.681334615934247
30
0
10
72.508269248677593
20
-33.098320056188456
30
0
10
103.73871924308273
20
-37.539502661613973
30
0
10
120.13350340751143
20
-58.418919016111246
30
0
0
SPLINE
5
131
100
AcDbEntity
8
0
100
AcDbSpline
70
1064
71
3
72
8
73
4
74
0
42
0.000000001
43
0.0000000001
44
0.0000000001
40
0
40
0
40
0
40
0
40
1
40
1
40
1
40
1
10
120.13350340751143
20
-58.418919016111246
30
0
10
137.62193851696782
20
-80.691142393339021
30
0
10
132.89947160310876
20
-113.71665400782064
30
0
10
110.7770493212077
20
-131.01967569310304
30
0
0
SPLINE
5
132
100
AcDbEntity
8
0
100
AcDbSpline
70
1064
71
3
72
8
73
4
74
0
42
0.000000001
43
0.0000000001
44
0.0000000001
40
0
40
0
40
0
40
0
40
1
40
1
40
1
40
1
10
110.7770493212077
20
-131.01967569310304
30
0
10
87.259775164001496
20
-149.41367568293052
30
0
10
52.438931435618102
20
-144.40987096745607
30
0
10
34.227813532226584
20
-121.04434788345134
30
0
0
SPLINE
5
133
100
AcDbEntity
8
0
100
AcDbSpline
70
1064
71
3
72
8
73
4
74
0
42
0.000000001
43
0.0000000001
44
0.0000000001
40
0
40
0
40
0
40
0
40
1
40
1
40
1
40
1
10
34.227813532226584
20
-121.04434788345134
30
0
10
15.117027867111858
20
-96.524518642016602
30
0
10
20.081463871671058
20
-60.306089839526365
30
0
10
44.19477420079042
20
-41.04081308959757
30
0
0
ARC
5
134
100
AcDbEntity
8
0
100
AcDbCircle
10
78.796475024403904
20
-87.466943516094076
30
0
40
63.839913845062256
100
AcDbArc
50
-89.999989129884057
51
0
0
ARC
5
135
100
AcDbEntity
8
0
100
AcDbCircle
10
78.796475024403904
20
-87.466943516094076
30
0
40
63.83991384506227
100
AcDbArc
50
180
51
270.00001087011594
0
ARC
5
136
100
AcDbEntity
8
0
100
AcDbCircle
10
78.796475024403904
20
-87.466943516094076
30
0
40
63.839909807841018
100
AcDbArc
50
89.999996376627919
51
180
0
ARC
5
137
100
AcDbEntity
8
0
100
AcDbCircle
10
78.796475024403904
20
-87.466943516094076
30
0
40
63.839913845064558
100
AcDbArc
50
0
51
89.999989129884185
0
ARC
5
138
100
AcDbEntity
8
0
100
AcDbCircle
10
71.247811096789505
20
-94.964159556031134
30
0
40
0.93750012069940958
100
AcDbArc
50
270.00054359193751
51
359.9999537462661
0
ARC
5
139
100
AcDbEntity
8
0
100
AcDbCircle
10
71.247811096789505
20
-94.964159556031134
30
0
40
0.93750012069941957
100
AcDbArc
50
180.00004626161294
51
270.00054359193751
0
ARC
5
140
100
AcDbEntity
8
0
100
AcDbCircle
10
71.247811096789505
20
-94.964159556031134
30
0
40
0.93750005761783406
100
AcDbArc
50
89.999556644841419
51
180.00004626161294
0
ARC
5
141
100
AcDbEntity
8
0
100
AcDbCircle
10
71.247811096789505
20
-94.964159556031134
30
0
40
0.93749848057887863
100
AcDbArc
50
-4.6253733944152082e-05
51
89.999556644841419
0
ARC
5
142
100
AcDbEntity
8
0
100
AcDbCircle
10
87.033459315580203
20
-81.256049255331263
30
0
40
0.93750012069941846
100
AcDbArc
50
270.00054359193666
51
359.9999537462661
0
ARC
5
143
100
AcDbEntity
8
0
100
AcDbCircle
10
87.033459315580203
20
-81.256049255331263
30
0
40
0.93750012069941957
100
AcDbArc
50
180.00004626161294
51
270.00054359193666
0
ARC
5
144
100
AcDbEntity
8
0
100
AcDbCircle
10
87.033459315580203
20
-81.256049255331263
30
0
40
0.93750005761782518
100
AcDbArc
50
89.999556644841419
51
180.00004626161294
0
ARC
5
145
100
AcDbEntity
8
0
100
AcDbCircle
10
87.033459315580203
20
-81.256049255331263
30
0
40
0.93749848057887863
100
AcDbArc
50
-4.6253733944152082e-05
51
89.999556644841419
0
ARC
5
146
100
AcDbEntity
8
0
100
AcDbCircle
10
113.78946504779863
20
-135.59944569647305
30
0
40
0.93750012069941846
100
AcDbArc
50
270.00054359193666
51
359.9999537462661
0
ARC
5
147
100
AcDbEntity
8
0
100
AcDbCircle
10
113.78946504779863
20
-135.59944569647305
30
0
40
0.93750012069941957
100
AcDbArc
50
180.00004626161294
51
270.00054359193666
0
ARC
5
148
100
AcDbEntity
8
0
100
AcDbCircle
10
113.78946504779863
20
-135.59944569647305
30
0
40
0.93750005761780741
100
AcDbArc
50
89.999556644841419
51
180.00004626161294
0
ARC
5
149
100
AcDbEntity
8
0
100
AcDbCircle
10
113.78946504779863
20
-135.59944569647305
30
0
40
0.93749848057887863
100
AcDbArc
50
-4.6253733944152082e-05
51
89.999556644841419
0
ARC
5
150
100
AcDbEntity
8
0
100
AcDbCircle
10
44.980777456245889
20
-40.450380265513971
30
0
40
0.93750012069940958
100
AcDbArc
50
270.00054359193666
51
359.9999537462661
0
ARC
5
151
100
AcDbEntity
8
0
100
AcDbCircle
10
44.980777456245889
20
-40.450380265513971
30
0
40
0.93750012069941069
100
AcDbArc
50
179.99992289521089
51
270.00054359193666
0
ARC
5
152
100
AcDbEntity
8
0
100
AcDbCircle
10
44.980777456245889
20
-40.450380265513971
30
0
40
0.93750005761781785
100
AcDbArc
50
89.999556644606912
51
179.99992289521089
0
ARC
5
153
100
AcDbEntity
8
0
100
AcDbCircle
10
44.980777456245889
20
-40.450380265513971
30
0
40
0.93749848057941154
100
AcDbArc
50
-4.6253733944152082e-05
51
89.999556644606912
0
LWPOLYLINE
5
154
100
AcDbEntity
8
0
100
AcDbPolyline
90
4
70
1
43
0.0
10
75.155252674601243
20
-85.782663247741695
10
79.159271839640311
20
-91.182414402323403
10
82.274472518147803
20
-89.151207635559103
10
78.270453353108735
20
-83.751456480977396
0
LINE
5
155
100
AcDbEntity
8
0
100
AcDbLine
10
166.41715151468915
20
-49.424598309570328
30
0
11
168.76251869201664
21
-49.412954963419608
31
0
0
LINE
5
156
100
AcDbEntity
8
0
100
AcDbLine
10
168.76251869201664
20
-49.412954963419608
30
0
11
174.76197484334313
21
-158.43608067549641
31
0
0
LINE
5
157
100
AcDbEntity
8
0
100
AcDbLine
10
174.76197484334313
20
-158.43608067549641
30
0
11
220.78187255859379
21
-164.08412093835452
31
0
0
LINE
5
158
100
AcDbEntity
8
0
100
AcDbLine
10
220.78187255859379
20
-164.08412093835452
30
0
11
220.78187255859379
21
-168.37954673486331
31
0
0
LINE
5
159
100
AcDbEntity
8
0
100
AcDbLine
10
220.78187255859379
20
-168.37954673486331
30
0
11
216.87959136962894
21
-168.38405227380375
31
0
0
LINE
5
160
100
AcDbEntity
8
0
100
AcDbLine
10
216.87959136962894
20
-168.38405227380375
30
0
11
216.85393079121911
21
-171.59391771671551
31
0
0
LINE
5
161
100
AcDbEntity
8
0
100
AcDbLine
10
216.85393079121911
20
-171.59391771671551
30
0
11
109.67764809926354
21
-171.59391771671551
31
0
0
LINE
5
162
100
AcDbEntity
8
0
100
AcDbLine
10
109.67764809926354
20
-171.59391771671551
30
0
11
109.70066833496094
21
-168.55298576074219
31
0
0
LINE
5
163
100
AcDbEntity
8
0
100
AcDbLine
10
109.70066833496094
20
-168.55298576074219
30
0
11
105.71392847696941
21
-168.4639569572347
31
0
0
LINE
5
164
100
AcDbEntity
8
0
100
AcDbLine
10
105.71392847696941
20
-168.4639569572347
30
0
11
105.71392847696941
21
-164.08404019392907
31
0
0
LINE
5
165
100
AcDbEntity
8
0
100
AcDbLine
10
105.71392847696941
20
-164.08404019392907
30
0
11
151.67231508890791
21
-158.4354024223226
31
0
0
LINE
5
166
100
AcDbEntity
8
0
100
AcDbLine
10
151.67231508890791
20
-158.4354024223226
30
0
11
157.85168596903486
21
-49.473077262613941
31
0
0
LINE
5
167
100
AcDbEntity
8
0
100
AcDbLine
10
157.85168596903486
20
-49.473077262613941
30
0
11
160.07860107421877
21
-49.466730750773124
31
0
0
LINE
5
168
100
AcDbEntity
8
0
100
AcDbLine
10
160.07860107421877
20
-49.466730750773124
30
0
11
160.07860107421877
21
-37.259497830444339
31
0
0
SPLINE
5
169
100
AcDbEntity
8
0
100
AcDbSpline
70
1064
71
3
72
8
73
4
74
0
42
0.000000001
43
0.0000000001
44
0.0000000001
40
0
40
0
40
0
40
0
40
1
40
1
40
1
40
1
10
160.07860107421877
20
-37.259497830444346
30
0
10
160.53030153910322
20
-37.224438600911462
30
0
10
161.4747044881185
20
-36.352423029317229
30
0
10
161.7027267456055
20
-36.191741622660331
30
0
0
SPLINE
5
170
100
AcDbEntity
8
0
100
AcDbSpline
70
1064
71
3
72
8
73
4
74
0
42
0.000000001
43
0.0000000001
44
0.0000000001
40
0
40
0
40
0
40
0
40
1
40
1
40
1
40
1
10
161.7027267456055
20
-36.191741622660331
30
0
10
161.97854970296225
20
-35.997454386128751
30
0
10
161.90206858317057
20
-35.986691154215499
30
0
10
161.83030293782554
20
-35.410983400716148
30
0
0
SPLINE
5
171
100
AcDbEntity
8
0
100
AcDbSpline
70
1064
71
3
72
8
73
4
74
0
42
0.000000001
43
0.0000000001
44
0.0000000001
40
0
40
0
40
0
40
0
40
1
40
1
40
1
40
1
10
161.83030293782554
20
-35.410983400716148
30
0
10
161.00845387776695
20
-34.950610984537768
30
0
10
160.26573435465497
20
-33.829014393859872
30
0
10
160.26573435465497
20
-32.925145146423347
30
0
0
SPLINE
5
172
100
AcDbEntity
8
0
100
AcDbSpline
70
1064
71
3
72
8
73
4
74
0
42
0.000000001
43
0.0000000001
44
0.0000000001
40
0
40
0
40
0
40
0
40
1
40
1
40
1
40
1
10
160.26573435465497
20
-32.925145146423347
30
0
10
160.26573435465497
20
-31.626516402933763
30
0
10
161.78700777689616
20
-30.321113202148446
30
0
10
163.20867487589521
20
-30.321113202148446
30
0
0
SPLINE
5
173
100
AcDbEntity
8
0
100
AcDbSpline
70
1064
71
3
72
8
73
4
74
0
42
0.000000001
43
0.0000000001
44
0.0000000001
40
0
40
0
40
0
40
0
40
1
40
1
40
1
40
1
10
163.20867487589521
20
-30.321113202148446
30
0
10
164.63034197489424
20
-30.321113202148446
30
0
10
166.24379323323569
20
-31.710732838684091
30
0
10
166.24379323323569
20
-33.009329284403492
30
0
0
SPLINE
5
174
100
AcDbEntity
8
0
100
AcDbSpline
70
1064
71
3
72
8
73
4
74
0
42
0.000000001
43
0.0000000001
44
0.0000000001
40
0
40
0
40
0
40
0
40
1
40
1
40
1
40
1
10
166.24379323323569
20
-33.009329284403492
30
0
10
166.24379323323569
20
-33.870783485148117
30
0
10
165.4600716908773
20
-34.876681388590505
30
0
10
164.62501284281416
20
-35.38160857873536
30
0
0
SPLINE
5
175
100
AcDbEntity
8
0
100
AcDbSpline
70
1064
71
3
72
8
73
4
74
0
42
0.000000001
43
0.0000000001
44
0.0000000001
40
0
40
0
40
0
40
0
40
1
40
1
40
1
40
1
10
164.62501284281416
20
-35.38160857873536
30
0
10
164.477751159668
20
-35.985867561075857
30
0
10
164.40125389099123
20
-35.996655016316737
30
0
10
164.67706069946291
20
-36.190942252848316
30
0
0
SPLINE
5
176
100
AcDbEntity
8
0
100
AcDbSpline
70
1064
71
3
72
8
73
4
74
0
42
0.000000001
43
0.0000000001
44
0.0000000001
40
0
40
0
40
0
40
0
40
1
40
1
40
1
40
1
10
164.67706069946291
20
-36.190942252848316
30
0
10
164.90509910583498
20
-36.351623659505215
30
0
10
165.84950205485029
20
-37.142038914733895
30
0
10
166.36117947896324
20
-37.177493791951505
30
0
0
LINE
5
177
100
AcDbEntity
8
0
100
AcDbLine
10
166.36117947896324
20
-37.177493791951505
30
0
11
166.41715151468915
21
-49.424598309570328
31
0
0
SPLINE
5
178
100
AcDbEntity
8
0
100
AcDbSpline
70
1064
71
3
72
8
73
4
74
0
42
0.000000001
43
0.0000000001
44
0.0000000001
40
0
40
0
40
0
40
0
40
1
40
1
40
1
40
1
10
220.23407007853194
20
-95.243652340942404
30
0
10
220.53300209045415
20
-95.040870790852878
30
0
10
220.45010986328128
20
-95.029647315714527
30
0
10
220.37233683268232
20
-94.42874730147301
30
0
0
SPLINE
5
179
100
AcDbEntity
8
0
100
AcDbSpline
70
1064
71
3
72
8
73
4
74
0
42
0.000000001
43
0.0000000001
44
0.0000000001
40
0
40
0
40
0
40
0
40
1
40
1
40
1
40
1
10
220.37233683268232
20
-94.42874730147301
30
0
10
219.48161277770998
20
-93.948253374471037
30
0
10
219.14540913899742
20
-92.777636843098975
30
0
10
219.14540913899742
20
-91.834251273844416
30
0
0
SPLINE
5
180
100
AcDbEntity
8
0
100
AcDbSpline
70
1064
71
3
72
8
73
4
74
0
42
0.000000001
43
0.0000000001
44
0.0000000001
40
0
40
0
40
0
40
0
40
1
40
1
40
1
40
1
10
219.14540913899742
20
-91.834251273844416
30
0
10
219.14540913899742
20
-90.47885919925946
30
0
10
220.32539202372237
20
-89.116410061889667
30
0
10
221.86625404357912
20
-89.116410061889667
30
0
0
SPLINE
5
181
100
AcDbEntity
8
0
100
AcDbSpline
70
1064
71
3
72
8
73
4
74
0
42
0.000000001
43
0.0000000001
44
0.0000000001
40
0
40
0
40
0
40
0
40
1
40
1
40
1
40
1
10
221.86625404357912
20
-89.116410061889667
30
0
10
223.40705146789554
20
-89.116410061889667
30
0
10
224.68699595133467
20
-90.566773729695655
30
0
10
224.68699595133467
20
-91.922133506510434
30
0
0
SPLINE
5
182
100
AcDbEntity
8
0
100
AcDbSpline
70
1064
71
3
72
8
73
4
74
0
42
0.000000001
43
0.0000000001
44
0.0000000001
40
0
40
0
40
0
40
0
40
1
40
1
40
1
40
1
10
224.68699595133467
20
-91.922133506510434
30
0
10
224.68699595133467
20
-92.821238832845069
30
0
10
224.30633443196621
20
-93.871110150390649
30
0
10
223.40130246480311
20
-94.398096717570013
30
0
0
SPLINE
5
183
100
AcDbEntity
8
0
100
AcDbSpline
70
1064
71
3
72
8
73
4
74
0
42
0.000000001
43
0.0000000001
44
0.0000000001
40
0
40
0
40
0
40
0
40
1
40
1
40
1
40
1
10
223.40130246480311
20
-94.398096717570013
30
0
10
223.24168688456223
20
-95.028775275919614
30
0
10
223.15877850850427
20
-95.040031048828141
30
0
10
223.45767822265628
20
-95.242812598917652
30
0
0
SPLINE
5
184
100
AcDbEntity
8
0
100
AcDbSpline
70
1064
71
2
72
6
73
3
74
0
42
0.000000001
43
0.0000000001
44
0.0000000001
40
0
40
0
40
0
40
1
40
1
40
1
10
223.45767822265628
20
-95.242812598917652
30
0
10
223.70485305786136
20
-95.410502621704126
30
0
10
225.250123723348
20
-96.269623308553079
30
0
0
SPLINE
5
185
100
AcDbEntity
8
0
100
AcDbSpline
70
1064
71
3
72
8
73
4
74
0
42
0.000000001
43
0.0000000001
44
0.0000000001
40
0
40
0
40
0
40
0
40
1
40
1
40
1
40
1
10
225.250123723348
20
-96.269623308553079
30
0
10
230.18449630737308
20
-99.382046378824896
30
0
10
238.09170099894209
20
-104.73094469425459
30
0
10
239.18165384928389
20
-103.93903566715495
30
0
0
SPLINE
5
186
100
AcDbEntity
8
0
100
AcDbSpline
70
1064
71
3
72
8
73
4
74
0
42
0.000000001
43
0.0000000001
44
0.0000000001
40
0
40
0
40
0
40
0
40
1
40
1
40
1
40
1
10
239.18165384928389
20
-103.93903566715495
30
0
10
240.75846328735355
20
-102.79341760990398
30
0
10
235.28460489908861
20
-86.582811479939778
30
0
10
235.88690986633304
20
-84.729177853637708
30
0
0
SPLINE
5
187
100
AcDbEntity
8
0
100
AcDbSpline
70
1064
71
3
72
8
73
4
74
0
42
0.000000001
43
0.0000000001
44
0.0000000001
40
0
40
0
40
0
40
0
40
1
40
1
40
1
40
1
10
235.88690986633304
20
-84.729177853637708
30
0
10
236.48918253580732
20
-82.875528078450529
30
0
10
250.44598566691087
20
-72.978328574869806
30
0
10
249.84368069966638
20
-71.124678799682627
30
0
0
SPLINE
5
188
100
AcDbEntity
8
0
100
AcDbSpline
70
1064
71
3
72
8
73
4
74
0
42
0.000000001
43
0.0000000001
44
0.0000000001
40
0
40
0
40
0
40
0
40
1
40
1
40
1
40
1
10
249.84368069966638
20
-71.124678799682627
30
0
10
249.2414080301921
20
-69.271029024495462
30
0
10
232.1326816558838
20
-69.467609402709968
30
0
10
230.55590451558433
20
-68.322007494344092
30
0
0
SPLINE
5
189
100
AcDbEntity
8
0
100
AcDbSpline
70
1064
71
3
72
8
73
4
74
0
42
0.000000001
43
0.0000000001
44
0.0000000001
40
0
40
0
40
0
40
0
40
1
40
1
40
1
40
1
10
230.55590451558433
20
-68.322007494344092
30
0
10
228.97909507751467
20
-67.176389437093107
30
0
10
223.87916412353519
20
-50.844311393473312
30
0
10
221.93012288411464
20
-50.844311393473312
30
0
0
SPLINE
5
190
100
AcDbEntity
8
0
100
AcDbSpline
70
1064
71
3
72
8
73
4
74
0
42
0.000000001
43
0.0000000001
44
0.0000000001
40
0
40
0
40
0
40
0
40
1
40
1
40
1
40
1
10
221.93012288411464
20
-50.844311393473312
30
0
10
219.98109779357915
20
-50.844311393473312
30
0
10
214.88119913736983
20
-67.176389437093107
30
0
10
213.30438969930015
20
-68.322007494344092
30
0
0
SPLINE
5
191
100
AcDbEntity
8
0
100
AcDbSpline
70
1064
71
3
72
8
73
4
74
0
42
0.000000001
43
0.0000000001
44
0.0000000001
40
0
40
0
40
0
40
0
40
1
40
1
40
1
40
1
10
213.30438969930015
20
-68.322007494344092
30
0
10
211.72761255900068
20
-69.467625551595063
30
0
10
194.61888618469243
20
-69.271045173380543
30
0
10
194.01661351521813
20
-71.124678799682627
30
0
0
SPLINE
5
192
100
AcDbEntity
8
0
100
AcDbSpline
70
1064
71
3
72
8
73
4
74
0
42
0.000000001
43
0.0000000001
44
0.0000000001
40
0
40
0
40
0
40
0
40
1
40
1
40
1
40
1
10
194.01661351521813
20
-71.124678799682627
30
0
10
193.41430854797366
20
-72.978328574869806
30
0
10
207.37111167907716
20
-82.875528078450529
30
0
10
207.97338434855146
20
-84.729177853637708
30
0
0
SPLINE
5
193
100
AcDbEntity
8
0
100
AcDbSpline
70
1064
71
3
72
8
73
4
74
0
42
0.000000001
43
0.0000000001
44
0.0000000001
40
0
40
0
40
0
40
0
40
1
40
1
40
1
40
1
10
207.97338434855146
20
-84.729177853637708
30
0
10
208.57568931579593
20
-86.582827628824873
30
0
10
203.10181477864586
20
-102.79343375878908
30
0
10
204.67864036560061
20
-103.93903566715495
30
0
0
SPLINE
5
194
100
AcDbEntity
8
0
100
AcDbSpline
70
1064
71
3
72
8
73
4
74
0
42
0.000000001
43
0.0000000001
44
0.0000000001
40
0
40
0
40
0
40
0
40
1
40
1
40
1
40
1
10
204.67864036560061
20
-103.93903566715495
30
0
10
205.77544034322105
20
-104.73590240197757
30
0
10
213.49580243428551
20
-99.513853578938821
30
0
10
218.49270350138352
20
-96.395891441080735
30
0
0
SPLINE
5
195
100
AcDbEntity
8
0
100
AcDbSpline
70
1064
71
2
72
6
73
3
74
0
42
0.000000001
43
0.0000000001
44
0.0000000001
40
0
40
0
40
0
40
1
40
1
40
1
10
218.49270350138352
20
-96.395891441080735
30
0
10
219.98694368998213
20
-95.411326214843768
30
0
10
220.23407007853194
20
-95.243652340942404
30
0
0
ENDSEC
0
SECTION
2
OBJECTS
0
DICTIONARY
5
C
100
AcDbDictionary
3
ACAD_GROUP
350
D
3
ACAD_MLINESTYLE
350
17
0
DICTIONARY
5
D
100
AcDbDictionary
0
DICTIONARY
5
1A
330
C
100
AcDbDictionary
0
DICTIONARY
5
17
100
AcDbDictionary
0
ENDSEC
0
EOF
